<svg xmlns="http://www.w3.org/2000/svg" viewBox="0 0 620 300" role="img" aria-labelledby="title desc">
  <title id="title">수학의힘 외대HS 3관 위치 지도</title>
  <desc id="desc">산내중학교와 운정센트레빌 인근 청암로 17번길 55 센트럴프라자 8층 위치를 표시한 지도 이미지</desc>
  <rect width="620" height="300" fill="#f5f4ef"/>
  <g opacity="0.86">
    <path d="M0 210 L620 118" stroke="#fff" stroke-width="58"/>
    <path d="M0 210 L620 118" stroke="#d7dce2" stroke-width="2"/>
    <path d="M125 0 L208 300" stroke="#fff" stroke-width="46"/>
    <path d="M125 0 L208 300" stroke="#d7dce2" stroke-width="2"/>
    <path d="M340 0 L278 300" stroke="#fff" stroke-width="38"/>
    <path d="M340 0 L278 300" stroke="#d7dce2" stroke-width="2"/>
  </g>
  <g fill="#eadbc9" stroke="#e4cdb6" stroke-width="1">
    <rect x="206" y="48" width="112" height="78" rx="4"/>
    <rect x="362" y="26" width="118" height="86" rx="4"/>
    <rect x="438" y="156" width="110" height="70" rx="4"/>
    <rect x="82" y="40" width="104" height="78" rx="4" fill="#dfeaf3" stroke="#d3dee8"/>
  </g>
  <g font-family="Malgun Gothic, Arial, sans-serif" font-size="14" fill="#6e7e91">
    <text x="106" y="76" text-anchor="middle" fill="#5b83c8">산들초등학교</text>
    <text x="82" y="174">운정센트레빌</text>
    <text x="230" y="138" fill="#d9855e">뚜레쥬르</text>
    <text x="198" y="104" fill="#c47454">울지로 연탄구이</text>
    <text x="395" y="118" fill="#c46f58">기대플러스 병원</text>
    <text x="436" y="178" fill="#b86f51">밤맨 아라보쌈</text>
  </g>
  <g transform="translate(300 138)">
    <path d="M0 0 C-24 0 -43 19 -43 43 C-43 75 0 112 0 112 C0 112 43 75 43 43 C43 19 24 0 0 0Z" fill="#f45d4f" filter="url(#shadow)"/>
    <circle cx="0" cy="42" r="10" fill="#fff"/>
  </g>
  <text x="300" y="232" text-anchor="middle" font-family="Malgun Gothic, Arial, sans-serif" font-size="18" font-weight="800" fill="#202938">수학의힘</text>
  <text x="300" y="256" text-anchor="middle" font-family="Malgun Gothic, Arial, sans-serif" font-size="18" font-weight="800" fill="#202938">외대HS3관학원</text>
  <defs><filter id="shadow" x="-30%" y="-20%" width="160%" height="160%"><feDropShadow dx="0" dy="6" stdDeviation="5" flood-color="#c84a3f" flood-opacity="0.22"/></filter></defs>
</svg>
