<svg xmlns="http://www.w3.org/2000/svg" viewBox="0 0 620 300" role="img" aria-labelledby="title desc">
  <title id="title">수학의힘 외대HS 1관 위치 지도</title>
  <desc id="desc">산내중학교와 운정센트레빌 인근 청암로 17번길 55 센트럴프라자 9층 위치를 표시한 지도 이미지</desc>
  <rect width="620" height="300" fill="#f5f4ef"/>
  <g opacity="0.86">
    <path d="M0 218 L620 126" stroke="#ffffff" stroke-width="58"/>
    <path d="M0 218 L620 126" stroke="#d7dce2" stroke-width="2"/>
    <path d="M110 0 L216 300" stroke="#ffffff" stroke-width="46"/>
    <path d="M110 0 L216 300" stroke="#d7dce2" stroke-width="2"/>
    <path d="M338 0 L260 300" stroke="#ffffff" stroke-width="40"/>
    <path d="M338 0 L260 300" stroke="#d7dce2" stroke-width="2"/>
  </g>
  <g fill="#eadbc9" stroke="#e4cdb6" stroke-width="1">
    <rect x="220" y="38" width="104" height="78" rx="4"/>
    <rect x="362" y="24" width="118" height="86" rx="4"/>
    <rect x="402" y="152" width="98" height="62" rx="4"/>
    <rect x="86" y="36" width="96" height="78" rx="4" fill="#dfeaf3" stroke="#d3dee8"/>
  </g>
  <g font-family="Malgun Gothic, Arial, sans-serif" font-size="14" fill="#6e7e91">
    <text x="105" y="72" text-anchor="middle" fill="#5b83c8">산들초등학교</text>
    <text x="85" y="170">운정센트레빌</text>
    <text x="394" y="118" fill="#c46f58">기대플러스 병원</text>
    <text x="440" y="178" fill="#b86f51">밤맨 아라보쌈</text>
    <text x="500" y="58" fill="#c6942e">홈플러스</text>
  </g>
  <g transform="translate(320 126)">
    <path d="M0 0 C-24 0 -43 19 -43 43 C-43 75 0 112 0 112 C0 112 43 75 43 43 C43 19 24 0 0 0Z" fill="#f45d4f" filter="url(#shadow)"/>
    <circle cx="0" cy="42" r="10" fill="#fff"/>
  </g>
  <text x="320" y="220" text-anchor="middle" font-family="Malgun Gothic, Arial, sans-serif" font-size="18" font-weight="800" fill="#202938">수학의힘</text>
  <text x="320" y="244" text-anchor="middle" font-family="Malgun Gothic, Arial, sans-serif" font-size="18" font-weight="800" fill="#202938">외대HS 1관학원</text>
  <defs><filter id="shadow" x="-30%" y="-20%" width="160%" height="160%"><feDropShadow dx="0" dy="6" stdDeviation="5" flood-color="#c84a3f" flood-opacity="0.22"/></filter></defs>
</svg>
